<svg width="225" height="59" viewBox="0 0 225 59" fill="none" xmlns="http://www.w3.org/2000/svg">
<g filter="url(#filter0_d)">
<path d="M42.4482 3.94118C41.8226 4.90993 41.0658 5.81813 40.1777 6.66579C39.2897 7.51344 38.321 8.26019 37.2715 8.90602C36.222 9.55185 35.112 10.0665 33.9414 10.45C32.7708 10.8132 31.6003 10.9949 30.4297 10.9949L24.4658 11.0554C23.6585 12.0242 23.0632 12.9627 22.6797 13.8709C22.2962 14.7791 22.1045 15.8487 22.1045 17.0798V25.5564H22.9824C23.7897 25.5564 24.7686 25.5766 25.9189 25.617C27.0693 25.6371 28.2298 25.6069 29.4004 25.5261C30.5911 25.4454 31.7214 25.2739 32.791 25.0115C33.8607 24.7289 34.7285 24.295 35.3945 23.7097L36.1211 24.5877C35.4954 25.5362 34.7386 26.3334 33.8506 26.9793C32.9626 27.6251 31.9938 28.1599 30.9443 28.5838C29.8949 28.9874 28.7848 29.2901 27.6143 29.492C26.4437 29.6736 25.2731 29.7745 24.1025 29.7947H22.1045V41.3289C22.1045 44.0131 21.5293 46.3946 20.3789 48.4734C19.2285 50.5724 17.5534 52.3787 15.3535 53.8923L14.2939 52.7117C14.637 52.3282 14.9095 51.8943 15.1113 51.4099C15.3132 50.9256 15.4645 50.421 15.5654 49.8963C15.6865 49.3715 15.7572 48.8468 15.7773 48.322C15.8177 47.7771 15.8379 47.2625 15.8379 46.7781V29.7947H9.96484L13.1738 25.5564H15.8379V20.5916C15.8379 19.643 16.0296 18.7247 16.4131 17.8367C16.8167 16.9285 17.3213 16.0707 17.9268 15.2634C18.5322 14.4562 19.1982 13.6993 19.9248 12.9929C20.6514 12.2866 21.3577 11.6407 22.0439 11.0554C21.1963 11.0554 20.389 11.0554 19.6221 11.0554C18.8753 11.0353 18.1185 11.0252 17.3516 11.0252C16.5846 11.0252 15.7975 11.0252 14.9902 11.0252C14.1829 11.005 13.2949 10.9949 12.3262 10.9949C11.5592 10.9949 10.873 11.0756 10.2676 11.2371C9.68229 11.3784 9.13737 11.5903 8.63281 11.8728C8.12826 12.1554 7.64388 12.5086 7.17969 12.9324C6.71549 13.3562 6.24121 13.8507 5.75684 14.4158L4.87891 13.4773C5.5651 12.5287 6.38249 11.56 7.33105 10.5711C8.27962 9.56195 9.29883 8.64365 10.3887 7.81618C11.4987 6.9887 12.6592 6.3126 13.8701 5.78786C15.1012 5.24294 16.3424 4.97047 17.5938 4.97047H29.3096C30.0967 4.97047 31.0654 4.96038 32.2158 4.9402C33.3662 4.92002 34.5368 4.85947 35.7275 4.75856C36.9183 4.63747 38.0485 4.45583 39.1182 4.21364C40.1878 3.95127 41.0456 3.58799 41.6914 3.12379L42.4482 3.94118ZM62.6709 44.78C62.4287 45.3048 62.126 45.7993 61.7627 46.2634C61.3994 46.7276 60.9756 47.1414 60.4912 47.5047C60.027 47.8679 59.5124 48.1606 58.9473 48.3826C58.4023 48.5844 57.8271 48.6853 57.2217 48.6853C55.6273 48.6853 54.4769 48.2514 53.7705 47.3836C53.0843 46.4955 52.7412 45.2947 52.7412 43.781V43.2361C52.3779 43.9223 51.9642 44.6085 51.5 45.2947C51.056 45.9809 50.5413 46.5965 49.9561 47.1414C49.391 47.6863 48.7552 48.1303 48.0488 48.4734C47.3424 48.8165 46.5553 48.9881 45.6875 48.9881C44.3757 48.9881 43.2152 48.7358 42.2061 48.2312C41.1969 47.7267 40.3493 47.0506 39.6631 46.2029C38.9769 45.3351 38.4622 44.3259 38.1191 43.1756C37.776 42.0252 37.6045 40.8041 37.6045 39.5125C37.6045 37.7566 37.9072 36.0108 38.5127 34.2752C39.1383 32.5193 40.0062 30.9552 41.1162 29.5828C42.2464 28.2104 43.5885 27.1004 45.1426 26.2527C46.7168 25.3849 48.4626 24.9509 50.3799 24.9509C51.1468 24.9509 51.9137 25.0216 52.6807 25.1629C53.4476 25.3041 54.1742 25.5362 54.8604 25.8591C55.5667 26.1619 56.2025 26.5655 56.7676 27.0701C57.3529 27.5746 57.8271 28.1902 58.1904 28.9168L53.6797 30.824C53.4375 30.4405 53.1549 30.0772 52.832 29.7341C52.5293 29.3709 52.1862 29.058 51.8027 28.7957C51.4395 28.5333 51.0459 28.3214 50.6221 28.1599C50.1982 27.9985 49.7542 27.9177 49.29 27.9177C48.2406 27.9177 47.3021 28.2407 46.4746 28.8865C45.6673 29.5323 44.971 30.3295 44.3857 31.2781C43.8206 32.2267 43.3867 33.2358 43.084 34.3054C42.7812 35.3751 42.6299 36.3438 42.6299 37.2117C42.6299 37.9786 42.7005 38.8465 42.8418 39.8152C43.0033 40.7638 43.2757 41.6619 43.6592 42.5095C44.0426 43.3572 44.5472 44.0737 45.1729 44.659C45.7985 45.2442 46.5856 45.5369 47.5342 45.5369C48.2809 45.5369 48.9268 45.3754 49.4717 45.0525C50.0166 44.7094 50.4808 44.2755 50.8643 43.7507C51.2477 43.2058 51.5605 42.5903 51.8027 41.9041C52.0651 41.1977 52.2568 40.4812 52.3779 39.7547C52.5192 39.0281 52.61 38.3116 52.6504 37.6052C52.7109 36.8787 52.7412 36.2328 52.7412 35.6677V33.5789L58.251 31.6414V43.9324C58.251 44.336 58.3519 44.7094 58.5537 45.0525C58.7555 45.3754 59.0684 45.5369 59.4922 45.5369C59.9967 45.5369 60.4508 45.3552 60.8545 44.992C61.2783 44.6085 61.6113 44.225 61.8535 43.8416L62.6709 44.78ZM79.4424 40.0271C79.4424 41.2784 79.2103 42.449 78.7461 43.5388C78.2819 44.6287 77.6462 45.5772 76.8389 46.3845C76.0518 47.1918 75.1032 47.8276 73.9932 48.2918C72.9033 48.756 71.7227 48.9881 70.4512 48.9881C69.9062 48.9881 69.3109 48.9376 68.665 48.8367C68.0394 48.7358 67.4137 48.5844 66.7881 48.3826C66.1624 48.1808 65.5671 47.9285 65.002 47.6257C64.457 47.323 64.0029 46.9597 63.6396 46.5359L67.2119 41.8738C67.4541 42.2573 67.7467 42.6811 68.0898 43.1453C68.4531 43.5893 68.8467 44.003 69.2705 44.3865C69.7145 44.77 70.1787 45.0929 70.6631 45.3552C71.1676 45.5974 71.6722 45.7185 72.1768 45.7185C72.762 45.7185 73.307 45.6176 73.8115 45.4158C74.3363 45.214 74.7904 44.9314 75.1738 44.5681C75.5573 44.1847 75.86 43.7407 76.082 43.2361C76.304 42.7315 76.415 42.1765 76.415 41.5711C76.415 40.7638 76.1325 40.0271 75.5674 39.3611C75.0225 38.6749 74.3665 38.019 73.5996 37.3933C72.8529 36.7475 72.0658 36.0916 71.2383 35.4256C70.431 34.7394 69.7751 33.9926 69.2705 33.1853L66.1221 37.7869L64.9414 36.909L68.5742 31.8836C68.2917 31.2983 68.0697 30.6827 67.9082 30.0369C67.7467 29.391 67.666 28.7452 67.666 28.0994C67.666 27.5545 67.7568 26.9793 67.9385 26.3738C68.1201 25.7683 68.3825 25.2133 68.7256 24.7088C69.0687 24.2042 69.4824 23.7905 69.9668 23.4675C70.4714 23.1244 71.0465 22.9529 71.6924 22.9529C72.318 22.9529 72.8428 23.1446 73.2666 23.5281C73.7106 23.9116 73.9326 24.4464 73.9326 25.1326C73.9326 25.4959 73.8721 25.8591 73.751 26.2224C73.6299 26.5857 73.4785 26.949 73.2969 27.3123C73.1152 27.6756 72.9134 28.0287 72.6914 28.3718C72.4694 28.6948 72.2575 28.9975 72.0557 29.28C72.54 29.9662 73.0648 30.5616 73.6299 31.0662C74.195 31.5707 74.75 32.045 75.2949 32.489C75.8398 32.933 76.3646 33.377 76.8691 33.8211C77.3737 34.2651 77.8076 34.7696 78.1709 35.3347C78.5544 35.8998 78.8571 36.5558 79.0791 37.3025C79.3213 38.0493 79.4424 38.9575 79.4424 40.0271ZM72.5703 25.6775C72.5703 25.395 72.4694 25.183 72.2676 25.0418C72.0859 24.9005 71.874 24.8298 71.6318 24.8298C71.2887 24.8298 71.0465 24.9509 70.9053 25.1931C70.764 25.4151 70.6934 25.6674 70.6934 25.95C70.6934 26.3536 70.7539 26.7472 70.875 27.1306C71.0163 27.5141 71.1878 27.8774 71.3896 28.2205C71.4704 28.0792 71.5713 27.8976 71.6924 27.6756C71.8337 27.4535 71.9648 27.2215 72.0859 26.9793C72.2272 26.7169 72.3382 26.4747 72.4189 26.2527C72.5199 26.0105 72.5703 25.8188 72.5703 25.6775ZM95.0029 44.8406C94.5387 45.8295 94.0039 46.5864 93.3984 47.1111C92.793 47.6358 92.1976 48.0193 91.6123 48.2615C90.9463 48.544 90.2601 48.7055 89.5537 48.7459C88.6455 48.7459 87.8988 48.6046 87.3135 48.322C86.7484 48.0395 86.2943 47.6661 85.9512 47.2019C85.6283 46.7377 85.3962 46.213 85.2549 45.6277C85.1338 45.0424 85.0732 44.447 85.0732 43.8416V27.9783H81.8643L83.166 24.9509H85.0732V14.2341L90.6133 12.2966V24.9509H96.3652L95.124 27.9783H90.6133V43.9929C90.6133 44.4773 90.7243 44.8608 90.9463 45.1433C91.1683 45.4259 91.4508 45.5772 91.7939 45.5974C92.137 45.5974 92.5205 45.4662 92.9443 45.2039C93.3682 44.9415 93.7819 44.5177 94.1855 43.9324L95.0029 44.8406ZM132.693 16.9588C132.693 18.6944 132.36 20.3595 131.694 21.9539C131.049 23.5483 130.16 25.0418 129.03 26.4343C127.92 27.8269 126.629 29.0883 125.155 30.2185C123.682 31.3487 122.118 32.3175 120.463 33.1248C118.808 33.9321 117.123 34.5577 115.407 35.0017C113.692 35.4457 112.037 35.6677 110.442 35.6677C110.281 35.6677 110.109 35.6677 109.928 35.6677C109.766 35.6677 109.605 35.6476 109.443 35.6072L109.776 33.9422C111.088 33.7201 112.41 33.3871 113.742 32.9431C115.094 32.4789 116.386 31.9138 117.617 31.2478C118.848 30.5616 119.999 29.7745 121.068 28.8865C122.138 27.9783 123.066 26.9793 123.854 25.8894C124.641 24.7794 125.256 23.5785 125.7 22.2869C126.164 20.975 126.396 19.5724 126.396 18.0789C126.396 16.6459 126.164 15.324 125.7 14.1131C125.236 12.9021 124.58 11.8526 123.732 10.9646C122.905 10.0766 121.906 9.3904 120.735 8.90602C119.565 8.40146 118.263 8.14919 116.83 8.14919C115.337 8.14919 113.803 8.32073 112.229 8.66383C110.674 9.00693 109.131 9.49131 107.597 10.117C106.063 10.7426 104.579 11.5095 103.146 12.4177C101.734 13.3058 100.432 14.2947 99.2412 15.3845L98.3027 14.3552C99.6751 12.9828 101.239 11.7013 102.995 10.5105C104.771 9.29958 106.628 8.2501 108.565 7.36208C110.503 6.45387 112.461 5.7374 114.438 5.21266C116.437 4.68792 118.354 4.42555 120.19 4.42555C121.946 4.42555 123.581 4.73838 125.095 5.36403C126.629 5.9695 127.951 6.82725 129.061 7.93727C130.191 9.0473 131.079 10.3692 131.725 11.9031C132.37 13.4369 132.693 15.1222 132.693 16.9588ZM108.081 47.0203L101.845 49.3211V15.3845L108.081 13.1746V47.0203ZM142.653 8.87575L141.049 19.9256L138.082 20.864L136.266 11.0554L142.653 8.87575ZM146.831 44.8406C146.367 45.8295 145.822 46.5864 145.196 47.1111C144.591 47.6358 144.006 48.0193 143.44 48.2615C142.774 48.544 142.098 48.7055 141.412 48.7459C140.524 48.7459 139.787 48.6046 139.202 48.322C138.617 48.0395 138.153 47.6661 137.81 47.2019C137.466 46.7377 137.224 46.213 137.083 45.6277C136.962 45.0424 136.901 44.447 136.901 43.8416V26.8582L142.472 24.9509V43.9929C142.472 44.4773 142.583 44.8608 142.805 45.1433C143.027 45.4259 143.309 45.5772 143.652 45.5974C144.016 45.5974 144.399 45.4662 144.803 45.2039C145.227 44.9415 145.63 44.5177 146.014 43.9324L146.831 44.8406ZM153.552 44.1746C153.935 43.9122 154.379 43.7003 154.884 43.5388C155.388 43.3572 155.903 43.2159 156.428 43.115C156.973 42.9939 157.507 42.9132 158.032 42.8728C158.577 42.8325 159.082 42.8123 159.546 42.8123C160.252 42.8123 161.029 42.8526 161.877 42.9334C162.745 43.0141 163.522 43.0545 164.208 43.0545C165.116 43.0545 166.004 42.9838 166.872 42.8425C167.76 42.7013 168.628 42.4591 169.476 42.116L165.691 48.322C165.025 48.5642 164.329 48.6853 163.603 48.6853C163.017 48.6853 162.422 48.6349 161.816 48.534C161.211 48.433 160.595 48.322 159.97 48.2009C159.344 48.0597 158.718 47.9386 158.093 47.8377C157.487 47.7368 156.902 47.6863 156.337 47.6863C155.187 47.6863 154.056 47.8074 152.946 48.0496C151.836 48.2716 150.736 48.5642 149.646 48.9275L148.345 48.2009L163.451 29.4617C162.866 29.6837 162.25 29.8754 161.604 30.0369C161.039 30.1782 160.404 30.3093 159.697 30.4304C159.011 30.5313 158.285 30.5818 157.518 30.5818C157.053 30.5818 156.609 30.5717 156.186 30.5515C155.782 30.5112 155.358 30.4708 154.914 30.4304C154.49 30.3901 154.036 30.3598 153.552 30.3396C153.088 30.2993 152.573 30.2791 152.008 30.2791C151.685 30.2791 151.342 30.3093 150.979 30.3699C150.615 30.4103 150.272 30.4607 149.949 30.5213C149.586 30.602 149.213 30.6827 148.829 30.7634L152.674 24.9509C153.299 24.9509 153.885 24.9711 154.43 25.0115C154.995 25.0519 155.55 25.0922 156.095 25.1326C156.64 25.1729 157.185 25.2133 157.729 25.2537C158.295 25.294 158.9 25.3142 159.546 25.3142C160.999 25.3142 162.442 25.2436 163.875 25.1023C165.328 24.9409 166.741 24.6583 168.113 24.2547L168.87 25.2537L153.552 44.1746ZM176.862 44.1746C177.246 43.9122 177.69 43.7003 178.194 43.5388C178.699 43.3572 179.214 43.2159 179.738 43.115C180.283 42.9939 180.818 42.9132 181.343 42.8728C181.888 42.8325 182.392 42.8123 182.856 42.8123C183.563 42.8123 184.34 42.8526 185.188 42.9334C186.055 43.0141 186.832 43.0545 187.519 43.0545C188.427 43.0545 189.315 42.9838 190.183 42.8425C191.071 42.7013 191.938 42.4591 192.786 42.116L189.002 48.322C188.336 48.5642 187.64 48.6853 186.913 48.6853C186.328 48.6853 185.732 48.6349 185.127 48.534C184.521 48.433 183.906 48.322 183.28 48.2009C182.655 48.0597 182.029 47.9386 181.403 47.8377C180.798 47.7368 180.213 47.6863 179.647 47.6863C178.497 47.6863 177.367 47.8074 176.257 48.0496C175.147 48.2716 174.047 48.5642 172.957 48.9275L171.655 48.2009L186.762 29.4617C186.176 29.6837 185.561 29.8754 184.915 30.0369C184.35 30.1782 183.714 30.3093 183.008 30.4304C182.322 30.5313 181.595 30.5818 180.828 30.5818C180.364 30.5818 179.92 30.5717 179.496 30.5515C179.092 30.5112 178.669 30.4708 178.225 30.4304C177.801 30.3901 177.347 30.3598 176.862 30.3396C176.398 30.2993 175.883 30.2791 175.318 30.2791C174.995 30.2791 174.652 30.3093 174.289 30.3699C173.926 30.4103 173.583 30.4607 173.26 30.5213C172.896 30.602 172.523 30.6827 172.14 30.7634L175.984 24.9509C176.61 24.9509 177.195 24.9711 177.74 25.0115C178.305 25.0519 178.86 25.0922 179.405 25.1326C179.95 25.1729 180.495 25.2133 181.04 25.2537C181.605 25.294 182.211 25.3142 182.856 25.3142C184.31 25.3142 185.753 25.2436 187.186 25.1023C188.639 24.9409 190.051 24.6583 191.424 24.2547L192.181 25.2537L176.862 44.1746ZM220.94 44.78C220.698 45.3048 220.396 45.7993 220.032 46.2634C219.669 46.7276 219.245 47.1414 218.761 47.5047C218.297 47.8679 217.782 48.1606 217.217 48.3826C216.672 48.5844 216.097 48.6853 215.491 48.6853C213.897 48.6853 212.746 48.2514 212.04 47.3836C211.354 46.4955 211.011 45.2947 211.011 43.781V43.2361C210.647 43.9223 210.234 44.6085 209.77 45.2947C209.326 45.9809 208.811 46.5965 208.226 47.1414C207.66 47.6863 207.025 48.1303 206.318 48.4734C205.612 48.8165 204.825 48.9881 203.957 48.9881C202.645 48.9881 201.485 48.7358 200.476 48.2312C199.466 47.7267 198.619 47.0506 197.933 46.2029C197.246 45.3351 196.732 44.3259 196.389 43.1756C196.046 42.0252 195.874 40.8041 195.874 39.5125C195.874 37.7566 196.177 36.0108 196.782 34.2752C197.408 32.5193 198.276 30.9552 199.386 29.5828C200.516 28.2104 201.858 27.1004 203.412 26.2527C204.986 25.3849 206.732 24.9509 208.649 24.9509C209.416 24.9509 210.183 25.0216 210.95 25.1629C211.717 25.3041 212.444 25.5362 213.13 25.8591C213.836 26.1619 214.472 26.5655 215.037 27.0701C215.622 27.5746 216.097 28.1902 216.46 28.9168L211.949 30.824C211.707 30.4405 211.424 30.0772 211.102 29.7341C210.799 29.3709 210.456 29.058 210.072 28.7957C209.709 28.5333 209.315 28.3214 208.892 28.1599C208.468 27.9985 208.024 27.9177 207.56 27.9177C206.51 27.9177 205.572 28.2407 204.744 28.8865C203.937 29.5323 203.241 30.3295 202.655 31.2781C202.09 32.2267 201.656 33.2358 201.354 34.3054C201.051 35.3751 200.899 36.3438 200.899 37.2117C200.899 37.9786 200.97 38.8465 201.111 39.8152C201.273 40.7638 201.545 41.6619 201.929 42.5095C202.312 43.3572 202.817 44.0737 203.442 44.659C204.068 45.2442 204.855 45.5369 205.804 45.5369C206.55 45.5369 207.196 45.3754 207.741 45.0525C208.286 44.7094 208.75 44.2755 209.134 43.7507C209.517 43.2058 209.83 42.5903 210.072 41.9041C210.335 41.1977 210.526 40.4812 210.647 39.7547C210.789 39.0281 210.88 38.3116 210.92 37.6052C210.98 36.8787 211.011 36.2328 211.011 35.6677V33.5789L216.521 31.6414V43.9324C216.521 44.336 216.621 44.7094 216.823 45.0525C217.025 45.3754 217.338 45.5369 217.762 45.5369C218.266 45.5369 218.72 45.3552 219.124 44.992C219.548 44.6085 219.881 44.225 220.123 43.8416L220.94 44.78Z" fill="#FF0000"/>
</g>
<defs>
<filter id="filter0_d" x="0.878906" y="0.123795" width="224.062" height="58.7686" filterUnits="userSpaceOnUse" color-interpolation-filters="sRGB">
<feFlood flood-opacity="0" result="BackgroundImageFix"/>
<feColorMatrix in="SourceAlpha" type="matrix" values="0 0 0 0 0 0 0 0 0 0 0 0 0 0 0 0 0 0 127 0" result="hardAlpha"/>
<feOffset dy="1"/>
<feGaussianBlur stdDeviation="2"/>
<feComposite in2="hardAlpha" operator="out"/>
<feColorMatrix type="matrix" values="0 0 0 0 0 0 0 0 0 0 0 0 0 0 0 0 0 0 0.25 0"/>
<feBlend mode="normal" in2="BackgroundImageFix" result="effect1_dropShadow"/>
<feBlend mode="normal" in="SourceGraphic" in2="effect1_dropShadow" result="shape"/>
</filter>
</defs>
</svg>
